<svg width="24" height="24" viewBox="0 0 24 24" fill="none" xmlns="http://www.w3.org/2000/svg">
<path d="M8.48752 10.9889C8.87873 10.9889 9.19501 10.6752 9.19501 10.2872C9.19501 9.89928 8.87873 9.58562 8.48752 9.58562C8.10464 9.58562 7.78003 9.90759 7.78003 10.2872C7.78003 10.667 8.10464 10.9889 8.48752 10.9889ZM8.48752 13.9109C8.87873 13.9109 9.19501 13.5972 9.19501 13.2093C9.19501 12.8213 8.87873 12.5159 8.48752 12.5159C8.09632 12.5159 7.78003 12.8296 7.78003 13.2093C7.78003 13.5972 8.09632 13.9109 8.48752 13.9109ZM8.48752 17.0062C8.87873 17.0062 9.19501 16.6926 9.19501 16.3046C9.19501 15.9166 8.87873 15.603 8.48752 15.603C8.10464 15.603 7.78003 15.9249 7.78003 16.3046C7.78003 16.6843 8.10464 17.0062 8.48752 17.0062ZM10.7099 10.799H15.7039C15.987 10.799 16.22 10.5679 16.22 10.2872C16.22 10.0066 15.987 9.76721 15.7039 9.76721H10.7099C10.4269 9.76721 10.1855 10.0066 10.1855 10.2872C10.1855 10.5679 10.4269 10.799 10.7099 10.799ZM10.7099 13.7292H15.7039C15.9953 13.7292 16.22 13.4981 16.22 13.2093C16.22 12.9286 15.9953 12.7057 15.7039 12.7057H10.7099C10.4186 12.7057 10.1855 12.9286 10.1855 13.2093C10.1855 13.4981 10.4186 13.7292 10.7099 13.7292ZM10.7099 16.8164H15.7039C15.987 16.8164 16.22 16.5852 16.22 16.3046C16.22 16.024 15.9953 15.7928 15.7039 15.7928H10.7099C10.4186 15.7928 10.1855 16.024 10.1855 16.3046C10.1855 16.5852 10.4269 16.8164 10.7099 16.8164ZM7.58026 22H16.4197C18.1427 22 19 21.1416 19 19.4082V6.89476C19 5.20265 18.176 4.30293 16.5113 4.30293H16.3116C16.3199 4.36897 16.3199 4.44325 16.3199 4.50929V5.25217C16.3199 5.38424 16.3116 5.51631 16.2866 5.63187H16.4864C17.2687 5.63187 17.6599 6.13537 17.6599 6.91127V19.3917C17.6599 20.2171 17.2188 20.6711 16.3532 20.6711H7.64685C6.78121 20.6711 6.34007 20.2171 6.34007 19.3917V6.91127C6.34007 6.13537 6.73128 5.63187 7.51368 5.63187H7.71344C7.68847 5.51631 7.68015 5.38424 7.68015 5.25217V4.50929C7.68015 4.44325 7.68015 4.36897 7.68847 4.30293H7.48871C5.82402 4.30293 5 5.20265 5 6.89476V19.4082C5 21.1416 5.85731 22 7.58026 22ZM9.42807 6.19315H14.572C15.0547 6.19315 15.346 5.88775 15.346 5.37598V4.50929C15.346 3.99753 15.0547 3.69212 14.572 3.69212H13.8062C13.7479 2.75939 12.9655 2 12 2C11.0345 2 10.2521 2.75939 10.1938 3.69212H9.42807C8.94531 3.69212 8.65399 3.99753 8.65399 4.50929V5.37598C8.65399 5.88775 8.94531 6.19315 9.42807 6.19315ZM12 4.47627C11.6005 4.47627 11.2759 4.14611 11.2759 3.75815C11.2759 3.3537 11.6005 3.03178 12 3.03178C12.3996 3.03178 12.7242 3.3537 12.7242 3.75815C12.7242 4.14611 12.3996 4.47627 12 4.47627Z" />
</svg>
