<svg width="24" height="24" viewBox="0 0 24 24" xmlns="http://www.w3.org/2000/svg">
<path d="M8.65262 11.0433C9.06505 11.0433 9.39503 10.7118 9.39503 10.2995C9.39503 9.88554 9.06505 9.55559 8.65262 9.55559C8.2469 9.55559 7.90875 9.89517 7.90875 10.2995C7.90875 10.7037 8.2469 11.0433 8.65262 11.0433ZM10.8941 10.8743H15.5193C15.8357 10.8743 16.0942 10.6143 16.0942 10.2995C16.0942 9.98305 15.8357 9.71787 15.5193 9.71787H10.8941C10.5791 9.71787 10.3125 9.98305 10.3125 10.2995C10.3125 10.6143 10.5791 10.8743 10.8941 10.8743ZM7.65943 21.992H16.3391C18.0779 21.992 19 21.0619 19 19.2969V6.92132C19 5.19145 18.1063 4.22623 16.4143 4.22623H16.2298C16.2601 4.32848 16.2718 4.4448 16.2718 4.56029V5.31856C16.2718 5.48772 16.2533 5.65246 16.2082 5.79496H16.381C17.0747 5.79496 17.4313 6.24534 17.4313 6.93768V19.2806C17.4313 20.0132 17.0331 20.4233 16.2707 20.4233H7.72928C6.96545 20.4233 6.56872 20.0132 6.56872 19.2806V6.93768C6.56872 6.24534 6.9252 5.79496 7.61902 5.79496H7.7903C7.74516 5.65246 7.72667 5.48772 7.72667 5.31856V4.56029C7.72667 4.4448 7.73845 4.32848 7.77018 4.22623H7.58417C5.89373 4.22623 5 5.19145 5 6.92132V19.2969C5 21.0619 5.92056 21.992 7.65943 21.992ZM9.4783 6.25843H14.5202C15.0123 6.25843 15.3089 5.944 15.3089 5.41917V4.56029C15.3089 4.034 15.0123 3.72104 14.5202 3.72104H13.8265C13.7649 2.77022 12.9754 2 12 2C11.0246 2 10.2351 2.77022 10.1734 3.72104H9.4783C8.98767 3.72104 8.69107 4.034 8.69107 4.56029V5.41917C8.69107 5.944 8.98767 6.25843 9.4783 6.25843ZM12 4.50991C11.6015 4.50991 11.278 4.17829 11.278 3.78942C11.278 3.38566 11.6015 3.06223 12 3.06223C12.3985 3.06223 12.7205 3.38566 12.7205 3.78942C12.7205 4.17829 12.3985 4.50991 12 4.50991Z" />
<path d="M8.65305 16.9902C9.06548 16.9902 9.39545 16.6603 9.39545 16.2463C9.39545 15.834 9.06548 15.5039 8.65305 15.5039C8.24733 15.5039 7.90918 15.8421 7.90918 16.2463C7.90918 16.6506 8.24733 16.9902 8.65305 16.9902ZM10.8945 16.8212H15.5197C15.8361 16.8212 16.0946 16.5628 16.0946 16.2463C16.0946 15.9315 15.8428 15.6745 15.5197 15.6745H10.8945C10.5729 15.6745 10.3129 15.9315 10.3129 16.2463C10.3129 16.5628 10.5796 16.8212 10.8945 16.8212Z" />
<path d="M8.65305 13.9317C9.06548 13.9317 9.39545 13.6016 9.39545 13.1893C9.39545 12.7768 9.06401 12.4536 8.65305 12.4536C8.24062 12.4536 7.90918 12.7864 7.90918 13.1893C7.90918 13.6016 8.23915 13.9317 8.65305 13.9317ZM10.8945 13.7694H15.5197C15.8443 13.7694 16.0946 13.5124 16.0946 13.1893C16.0946 12.8728 15.8428 12.6225 15.5197 12.6225H10.8945C10.5729 12.6225 10.3129 12.8728 10.3129 13.1893C10.3129 13.5124 10.5714 13.7694 10.8945 13.7694Z" />
</svg>
