<svg width="30" height="30" viewBox="0 0 30 30" xmlns="http://www.w3.org/2000/svg">
<path d="M11.2586 14.3775C10.8064 14.3775 10.4321 14.0214 10.4321 13.6073C10.4321 13.1851 10.8064 12.8357 11.2586 12.8357C11.7124 12.8357 12.085 13.1769 12.085 13.6073C12.085 14.0295 11.7124 14.3775 11.2586 14.3775ZM11.2586 17.3702C10.7976 17.3702 10.4321 17.0238 10.4321 16.5986C10.4321 16.1778 10.7992 15.8381 11.2586 15.8381C11.7092 15.8381 12.085 16.1696 12.085 16.5986C12.085 17.0238 11.7124 17.3702 11.2586 17.3702ZM11.2586 20.5348C10.8064 20.5348 10.4321 20.1854 10.4321 19.7632C10.4321 19.3476 10.8064 18.9915 11.2586 18.9915C11.7124 18.9915 12.085 19.3394 12.085 19.7632C12.085 20.1936 11.7124 20.5348 11.2586 20.5348ZM13.7453 14.2003C13.3888 14.2003 13.0959 13.932 13.0959 13.6073C13.0959 13.2811 13.3888 12.998 13.7453 12.998H18.9297C19.279 12.998 19.5678 13.2811 19.5678 13.6073C19.5678 13.932 19.279 14.2003 18.9297 14.2003H13.7453ZM13.7453 17.2012C13.38 17.2012 13.0959 16.9329 13.0959 16.5986C13.0959 16.2657 13.3816 16.0071 13.7453 16.0071H18.9297C19.2862 16.0071 19.5678 16.2657 19.5678 16.5986C19.5678 16.9329 19.2877 17.2012 18.9297 17.2012H13.7453ZM13.7453 20.3658C13.3888 20.3658 13.0959 20.0893 13.0959 19.7632C13.0959 19.437 13.3816 19.1717 13.7453 19.1717H18.9297C19.2862 19.1717 19.5678 19.437 19.5678 19.7632C19.5678 20.0893 19.279 20.3658 18.9297 20.3658H13.7453ZM10.3494 25H19.649C21.5121 25 22.5 24.0695 22.5 22.3038V9.91658C22.5 8.15099 21.5121 7.22041 19.7225 7.22041H19.5414C19.5666 7.29438 19.5793 7.3839 19.5793 7.47113V8.42054C19.5793 9.47665 18.817 10.2256 17.7002 10.2256H12.2982C11.183 10.2256 10.4192 9.47665 10.4192 8.42054V7.47113C10.4192 7.3839 10.4333 7.29438 10.4586 7.22041H10.2759C8.48631 7.22041 7.5 8.15099 7.5 9.91658V22.3038C7.5 24.0695 8.48631 25 10.3494 25ZM12.2982 9.26013H17.7002C18.2275 9.26013 18.5453 8.94557 18.5453 8.42054V7.56131C18.5453 7.03481 18.2275 6.72172 17.7002 6.72172H16.957C16.891 5.77052 16.045 5 15 5C13.955 5 13.109 5.77052 13.043 6.72172H12.2982C11.7725 6.72172 11.4547 7.03481 11.4547 7.56131V8.42054C11.4547 8.94557 11.7725 9.26013 12.2982 9.26013ZM15 7.51091C14.573 7.51091 14.2265 7.17916 14.2265 6.79014C14.2265 6.38622 14.573 6.06265 15 6.06265C15.427 6.06265 15.7719 6.38622 15.7719 6.79014C15.7719 7.17916 15.427 7.51091 15 7.51091Z" />
</svg>
