<svg width="24" height="24" viewBox="0 0 24 24" xmlns="http://www.w3.org/2000/svg">
<path d="M12 21C16.9236 21 21 16.9148 21 12C21 7.07648 16.9148 3 11.9912 3C7.07648 3 3 7.07648 3 12C3 16.9148 7.0853 21 12 21ZM12 19.5001C7.83531 19.5001 4.50883 16.1648 4.50883 12C4.50883 7.83531 7.82648 4.50001 11.9912 4.50001C16.1559 4.50001 19.5001 7.83531 19.5001 12C19.5001 16.1648 16.1648 19.5001 12 19.5001Z" fill="black"/>
<path d="M10.3036 17.4606H14.2829C14.6838 17.4606 14.9967 17.1673 14.9967 16.7664C14.9967 16.3851 14.6838 16.082 14.2829 16.082H13.0706V11.1054C13.0706 10.5774 12.8066 10.2254 12.3079 10.2254H10.4698C10.0689 10.2254 9.75606 10.5285 9.75606 10.9098C9.75606 11.3107 10.0689 11.604 10.4698 11.604H11.5159V16.082H10.3036C9.90272 16.082 9.58984 16.3851 9.58984 16.7664C9.58984 17.1673 9.90272 17.4606 10.3036 17.4606ZM11.9266 8.60238C12.6404 8.60238 13.1977 8.0353 13.1977 7.32156C13.1977 6.60782 12.6404 6.04074 11.9266 6.04074C11.2227 6.04074 10.6556 6.60782 10.6556 7.32156C10.6556 8.0353 11.2227 8.60238 11.9266 8.60238Z" fill="black"/>
</svg>
