<svg width="26" height="26" viewBox="0 0 26 26" fill="none" xmlns="http://www.w3.org/2000/svg">
<path d="M13 26C20.1118 26 26 20.0991 26 13C26 5.88824 20.0991 0 12.9873 0C5.88824 0 0 5.88824 0 13C0 20.0991 5.90099 26 13 26ZM13 23.8334C6.98433 23.8334 2.17942 19.0158 2.17942 13C2.17942 6.98433 6.97159 2.16667 12.9873 2.16667C19.003 2.16667 23.8334 6.98433 23.8334 13C23.8334 19.0158 19.0158 23.8334 13 23.8334ZM21.7177 21.3991L21.6795 21.2589C21.055 19.3853 17.6902 17.3334 13 17.3334C8.32256 17.3334 4.95785 19.3853 4.3206 21.2462L4.28236 21.3991C6.57649 23.6677 10.5147 24.9932 13 24.9932C15.4981 24.9932 19.398 23.6804 21.7177 21.3991ZM13 15.1667C15.4598 15.1922 17.3717 13.102 17.3717 10.3618C17.3717 7.78727 15.4471 5.65883 13 5.65883C10.553 5.65883 8.61571 7.78727 8.62844 10.3618C8.64119 13.102 10.553 15.1412 13 15.1667Z" />
</svg>
