<svg width="16" height="16" viewBox="0 0 16 16" fill="none" xmlns="http://www.w3.org/2000/svg">
<path d="M7.99997 16C12.3764 16 16 12.3686 16 8C16 3.62353 12.3686 0 7.99213 0C3.62351 0 0 3.62353 0 8C0 12.3686 3.63137 16 7.99997 16ZM7.99997 14.6667C4.29802 14.6667 1.34116 11.702 1.34116 8C1.34116 4.29804 4.29018 1.33334 7.99213 1.33334C11.6941 1.33334 14.6588 4.29804 14.6666 8C14.6745 11.702 11.7019 14.6667 7.99997 14.6667ZM5.66272 11.5922C5.9137 11.5922 6.04703 11.5059 6.25095 11.2314L7.94506 8.81568H7.97643L9.67055 11.2314C9.86663 11.5059 10.0078 11.5922 10.2509 11.5922C10.6039 11.5922 10.8705 11.3569 10.8705 11.0196C10.8705 10.8627 10.8235 10.7451 10.7215 10.6118L8.7529 7.92157L10.7372 5.22352C10.847 5.08235 10.8862 4.95687 10.8862 4.80784C10.8862 4.50197 10.6274 4.25883 10.298 4.25883C10.0549 4.25883 9.898 4.35294 9.72545 4.61176L8.08624 7.02745H8.04703L6.37645 4.60392C6.19606 4.35294 6.04703 4.25883 5.78038 4.25883C5.44312 4.25883 5.16861 4.52548 5.16861 4.83922C5.16861 5.01177 5.20782 5.12157 5.33332 5.29412L7.21566 7.88236L5.21566 10.6431C5.12155 10.7843 5.08234 10.8941 5.08234 11.051C5.08234 11.3569 5.33332 11.5922 5.66272 11.5922Z" />
</svg>
