<svg width="16" height="16" viewBox="0 0 16 16" fill="none" xmlns="http://www.w3.org/2000/svg">
<path d="M7.99997 16C12.3764 16 16 12.3686 16 8C16 3.62353 12.3686 0 7.99213 0C3.62351 0 0 3.62353 0 8C0 12.3686 3.63137 16 7.99997 16ZM7.99997 14.6667C4.29802 14.6667 1.34116 11.702 1.34116 8C1.34116 4.29804 4.29018 1.33334 7.99213 1.33334C11.6941 1.33334 14.6588 4.29804 14.6666 8C14.6745 11.702 11.7019 14.6667 7.99997 14.6667ZM7.99213 7.75686C9.10585 7.7647 10.0078 6.80784 10.0078 5.55294C10.0078 4.37647 9.10585 3.40392 7.99213 3.40392C6.8784 3.40392 5.97645 4.37647 5.97645 5.55294C5.97645 6.80784 6.8784 7.74902 7.99213 7.75686ZM4.40782 11.9765H11.5764C11.8902 11.9765 12.0392 11.7647 12.0392 11.4824C12.0392 10.6196 10.7451 8.39216 7.99213 8.39216C5.23919 8.39216 3.94509 10.6196 3.94509 11.4824C3.94509 11.7647 4.0941 11.9765 4.40782 11.9765Z" />
</svg>
