<svg width="16" height="16" viewBox="0 0 16 16" fill="none" xmlns="http://www.w3.org/2000/svg">
<path d="M8 16C12.3765 16 16 12.3687 16 8C16 3.62354 12.3687 0 7.99217 0C3.62354 0 0 3.62354 0 8C0 12.3687 3.63138 16 8 16ZM8 14.6667C4.29805 14.6667 1.34118 11.702 1.34118 8C1.34118 4.29805 4.29021 1.33334 7.99217 1.33334C11.6942 1.33334 14.6667 4.29805 14.6667 8C14.6667 11.702 11.702 14.6667 8 14.6667ZM5.1608 11.0902C5.1608 11.6784 5.41962 11.953 5.9608 11.953H10.0236C10.5648 11.953 10.8236 11.6784 10.8236 11.0902V7.96861C10.8236 7.4196 10.5961 7.15296 10.1333 7.12157V6.18825C10.1333 4.74511 9.27063 3.7804 7.99217 3.7804C6.71371 3.7804 5.85099 4.74511 5.85099 6.18825V7.12157C5.38825 7.15296 5.1608 7.4196 5.1608 7.96861V11.0902ZM6.66668 7.11374V6.10198C6.66668 5.18432 7.20001 4.57256 7.99217 4.57256C8.78433 4.57256 9.31768 5.18432 9.31768 6.10198V7.11374H6.66668Z" />
</svg>
