<svg width="26" height="26" viewBox="0 0 27 26" fill="none" xmlns="http://www.w3.org/2000/svg">
<path d="M13 26C20.1222 26 26.0023 20.1119 26.0023 13C26.0023 5.87778 20.1119 0 12.9897 0C5.88005 0 0 5.87778 0 13C0 20.1119 5.89037 26 13 26ZM13 23.4392C7.20703 23.4392 2.57113 18.7929 2.57113 13C2.57113 7.20703 7.1967 2.56082 12.9897 2.56082C18.7826 2.56082 23.4415 7.20703 23.4415 13C23.4415 18.7929 18.7929 23.4392 13 23.4392Z" />
<path d="M7.41755 19.2946H18.5625C19.1113 19.2946 19.3775 18.9141 19.3775 18.4247C19.3775 17.0563 17.3599 13.5477 12.99 13.5477C8.6202 13.5477 6.60254 17.0563 6.60254 18.4247C6.60254 18.9141 6.86883 19.2946 7.41755 19.2946ZM12.99 12.5645C14.7568 12.5748 16.1882 11.0621 16.1882 9.07114C16.1882 7.20601 14.7568 5.66357 12.99 5.66357C11.2256 5.66357 9.79414 7.20601 9.79414 9.07114C9.79414 11.0621 11.2256 12.5542 12.99 12.5645Z"/>
</svg>
