<svg width="24" height="24" viewBox="0 0 24 24" fill="none" xmlns="http://www.w3.org/2000/svg">
<path d="M12 21C16.9236 21 21 16.9148 21 12C21 7.07648 16.9148 3 11.9912 3C7.07648 3 3 7.07648 3 12C3 16.9148 7.0853 21 12 21ZM12 19.5001C7.83531 19.5001 4.50883 16.1648 4.50883 12C4.50883 7.83531 7.82648 4.50001 11.9912 4.50001C16.1559 4.50001 19.5001 7.83531 19.5001 12C19.5001 16.1648 16.1648 19.5001 12 19.5001ZM18.0354 17.8148L18.0089 17.7177C17.5765 16.4206 15.2471 15 12 15C8.76177 15 6.43236 16.4206 5.99119 17.7089L5.96471 17.8148C7.55295 19.3853 10.2794 20.303 12 20.303C13.7294 20.303 16.4294 19.3941 18.0354 17.8148ZM12 13.5C13.7029 13.5177 15.0265 12.0706 15.0265 10.1735C15.0265 8.39119 13.6941 6.91765 12 6.91765C10.3059 6.91765 8.96472 8.39119 8.97354 10.1735C8.98236 12.0706 10.3059 13.4824 12 13.5Z" />
</svg>
