<svg width="24" height="24" viewBox="0 0 24 24" fill="none" xmlns="http://www.w3.org/2000/svg">
<path d="M5.81814 21.2597H18.1991C19.8143 21.2597 20.6649 20.4359 20.6649 18.8225V18.2304L16.3776 14.1798C16.0167 13.8451 15.5699 13.682 15.1232 13.682C14.6678 13.682 14.264 13.828 13.8773 14.1712L10.1399 17.4666L8.64487 16.1364C8.2926 15.8189 7.92314 15.6558 7.52792 15.6558C7.15847 15.6558 6.81479 15.8275 6.46253 16.1278L3.34368 18.8225C3.34368 20.4359 4.20286 21.2597 5.81814 21.2597ZM9.46969 14.3858C10.5523 14.3858 11.4372 13.4846 11.4372 12.412C11.4372 11.3392 10.5523 10.4553 9.46969 10.4553C8.38711 10.4553 7.51073 11.3392 7.51073 12.412C7.51073 13.4846 8.38711 14.3858 9.46969 14.3858ZM5.69785 21.5H18.3021C20.0893 21.5 21 20.6075 21 18.8397V10.0262C21 8.25836 20.0893 7.36586 18.3021 7.36586H5.69785C3.89356 7.36586 3 8.25836 3 10.0262V18.8397C3 20.6075 3.89356 21.5 5.69785 21.5ZM5.71503 20.1184C4.85585 20.1184 4.38329 19.6549 4.38329 18.7624V10.1034C4.38329 9.21093 4.85585 8.74752 5.71503 8.74752H18.2763C19.127 8.74752 19.6167 9.21093 19.6167 10.1034V18.7624C19.6167 19.6549 19.127 20.1184 18.2763 20.1184H5.71503ZM4.81289 5.98419H19.1957C19.0668 5.20326 18.6974 4.77417 17.8382 4.77417H6.1704C5.31121 4.77417 4.94177 5.20326 4.81289 5.98419ZM6.58281 3.60705H17.4258C17.3742 2.8776 16.9618 2.5 16.1627 2.5H7.83723C7.04677 2.5 6.63436 2.8776 6.58281 3.60705Z" />
</svg>
