<svg width="18" height="18" viewBox="0 0 18 18" fill="none" xmlns="http://www.w3.org/2000/svg">
<path d="M18 11.8456C18 8.16073 15.5334 5.61414 11.1905 5.61414H4.79048L1.8381 5.74918L2.00953 6.19292L4.36191 4.15755L7.1143 1.43729C7.25716 1.28295 7.34287 1.09968 7.34287 0.848873C7.34287 0.347262 7.00954 0 6.49525 0C6.29525 0 6.04763 0.106112 5.88573 0.270092L0.285714 5.836C0.0952387 6.01928 0 6.24115 0 6.48233C0 6.7138 0.0952387 6.93564 0.285714 7.11895L5.88573 12.6848C6.04763 12.8585 6.29525 12.955 6.49525 12.955C7.00954 12.955 7.34287 12.6077 7.34287 12.1061C7.34287 11.8553 7.25716 11.672 7.1143 11.5177L4.36191 8.80707L2.00953 6.76203L1.8381 7.20579L4.79048 7.34079H11.3333C14.581 7.34079 16.2953 9.15435 16.2953 11.7492C16.2953 14.3537 14.581 16.2829 11.3333 16.2829H9.14287C8.61909 16.2829 8.27621 16.6688 8.27621 17.1415C8.27621 17.6141 8.61909 18 9.14287 18H11.3429C15.6 18 18 15.5402 18 11.8456Z" />
</svg>
