<svg width="15" height="15" viewBox="0 0 15 15" fill="none" xmlns="http://www.w3.org/2000/svg">
<path d="M7.5 15C11.603 15 15 11.5956 15 7.5C15 3.39706 11.5956 0 7.49266 0C3.39706 0 0 3.39706 0 7.5C0 11.5956 3.40442 15 7.5 15ZM5.02942 10.5883C4.69118 10.5883 4.42648 10.3162 4.42648 9.97793C4.42648 9.81618 4.4853 9.66176 4.60295 9.55152L6.6397 7.50734L4.60295 5.4706C4.4853 5.35295 4.42648 5.2059 4.42648 5.04413C4.42648 4.69854 4.69118 4.44118 5.02942 4.44118C5.19854 4.44118 5.33089 4.50001 5.44854 4.61031L7.5 6.65445L9.5662 4.60295C9.69119 4.47795 9.82352 4.42648 9.98534 4.42648C10.3235 4.42648 10.5956 4.69118 10.5956 5.02942C10.5956 5.19854 10.5441 5.33089 10.4118 5.46325L8.36764 7.50734L10.4044 9.54411C10.5294 9.65442 10.5883 9.80884 10.5883 9.97793C10.5883 10.3162 10.3162 10.5883 9.97059 10.5883C9.80149 10.5883 9.64708 10.5294 9.53677 10.4118L7.5 8.36764L5.4706 10.4118C5.35295 10.5294 5.19854 10.5883 5.02942 10.5883Z" />
</svg>
