<svg width="14" height="14" viewBox="0 0 14 14" fill="none" xmlns="http://www.w3.org/2000/svg">
<path d="M0.933333 14C0.466667 14 0 13.6111 0 13.0667C0 12.7556 0.0777778 12.6 0.311111 12.4444L5.75556 7L0.311111 1.55556C0.0777778 1.4 0 1.16667 0 0.933333C0 0.388889 0.466667 0 0.933333 0C1.16667 0 1.4 0.0777778 1.55556 0.233333L7 5.67778L12.4444 0.233333C12.6 0.0777778 12.8333 0 13.0667 0C13.5333 0 14 0.388889 14 0.933333C14 1.16667 13.9222 1.4 13.6889 1.55556L8.24444 7L13.6889 12.4444C13.8444 12.6 14 12.8333 14 13.0667C14 13.6111 13.5333 14 13.0667 14C12.8333 14 12.6 13.9222 12.4444 13.7667L7 8.32222L1.55556 13.7667C1.4 13.8444 1.16667 14 0.933333 14Z" fill="black"/>
</svg>
