<svg width="20" height="20" viewBox="0 0 20 20" fill="none" xmlns="http://www.w3.org/2000/svg">
<path d="M3.17412 20H15.0417C16.8613 20 17.9125 18.947 17.9125 16.8612V6.03718L16.285 7.66736V16.7801C16.285 17.8332 15.719 18.3698 15.0215 18.3698H3.20444C2.19358 18.3698 1.62749 17.8332 1.62749 16.7801V5.2879C1.62749 4.23487 2.19358 3.6881 3.20444 3.6881H12.4134L14.0409 2.05792H3.17412C1.07152 2.05792 0 3.11096 0 5.19677V16.8612C0 18.9571 1.07152 20 3.17412 20ZM6.85367 13.4388L8.82488 12.5782L18.2664 3.13121L16.8814 1.76429L7.45008 11.2112L6.5403 13.1148C6.45943 13.2869 6.66161 13.5198 6.85367 13.4388ZM19.0144 2.39206L19.7422 1.64278C20.0859 1.27828 20.0859 0.792258 19.7422 0.458122L19.5097 0.215115C19.1963 -0.0987704 18.701 -0.0582689 18.3675 0.265741L17.6295 0.994764L19.0144 2.39206Z"/>
</svg>
