<?xml version="1.0" encoding="UTF-8"?><svg id="Layer_1" xmlns="http://www.w3.org/2000/svg" viewBox="0 0 23.61 23.61"><defs></defs><path class="cls-1" d="M11.81,23.61c6.52,0,11.8-5.26,11.8-11.81S18.31,0,11.81,0,0,5.26,0,11.8s5.24,11.81,11.81,11.81Zm0-1.57c-5.71,0-10.24-4.53-10.24-10.24S6.13,1.57,11.81,1.57s10.23,4.59,10.23,10.23-4.56,10.24-10.23,10.24Z"/><path class="cls-1" d="M11.82,13.82c.62,0,.99-.35,1.02-1.03l.18-5.7c.02-.68-.5-1.17-1.21-1.17s-1.22,.48-1.2,1.16l.16,5.71c.02,.67,.39,1.03,1.05,1.03Zm0,3.88c.74,0,1.36-.55,1.36-1.29s-.61-1.29-1.36-1.29-1.38,.56-1.38,1.29,.62,1.29,1.38,1.29Z"/></svg>