<svg width="24" height="24" viewBox="0 0 24 24" fill="none" xmlns="http://www.w3.org/2000/svg">
<path d="M9.58275 20.1173H14.4173V13.878C14.4173 13.4838 14.1659 13.2266 13.7805 13.2266H10.2279C9.83407 13.2266 9.58275 13.4838 9.58275 13.878V20.1173ZM6.30666 21H17.643C18.8328 21 19.5282 20.3058 19.5282 19.106V9.63564L18.1793 8.69289V18.7546C18.1793 19.3116 17.8861 19.6202 17.3582 19.6202H6.59153C6.0553 19.6202 5.76204 19.3116 5.76204 18.7546V8.70147L4.41307 9.63564V19.106C4.41307 20.3058 5.1085 21 6.30666 21ZM2 11.4611C2 11.8125 2.26812 12.1467 2.72057 12.1467C2.95517 12.1467 3.14788 12.0182 3.32383 11.8725L11.7109 4.67338C11.8952 4.50196 12.1214 4.50196 12.3058 4.67338L20.6929 11.8725C20.8605 12.0182 21.0531 12.1467 21.2878 12.1467C21.6815 12.1467 22 11.8982 22 11.4869C22 11.2297 21.9162 11.0584 21.7402 10.904L13.018 3.40495C12.398 2.86502 11.6271 2.86502 10.9987 3.40495L2.26812 10.904C2.08379 11.0584 2 11.264 2 11.4611ZM17.4252 7.59588L19.5282 9.41281V5.45328C19.5282 5.07618 19.2936 4.83621 18.925 4.83621H18.0285C17.6682 4.83621 17.4252 5.07618 17.4252 5.45328V7.59588Z"/>
</svg>
