<svg width="24" height="24" viewBox="0 0 24 24"  xmlns="http://www.w3.org/2000/svg">
<path d="M9.64178 19.9036H14.3568V13.8205C14.3568 13.427 14.1095 13.1713 13.7266 13.1713H10.2816C9.89205 13.1713 9.64178 13.427 9.64178 13.8205V19.9036ZM6.43474 21H17.5235C18.7624 21 19.4926 20.2648 19.4926 19.0235V9.69086L17.8872 8.55974V18.5189C17.8872 19.0528 17.6048 19.3499 17.1003 19.3499H6.8579C6.34672 19.3499 6.06433 19.0528 6.06433 18.5189V8.56665L4.45886 9.69086V19.0235C4.45886 20.2648 5.18769 21 6.43474 21ZM2 11.4909C2 11.9256 2.31828 12.2966 2.83748 12.2966C3.092 12.2966 3.31883 12.1612 3.51894 11.9922L11.6583 4.97345C11.8784 4.77316 12.1365 4.77316 12.3581 4.97345L20.4931 11.9922C20.6879 12.1612 20.9147 12.2966 21.1693 12.2966C21.6399 12.2966 22 11.9962 22 11.5116C22 11.2271 21.893 11.0071 21.6855 10.8252L13.1565 3.45708C12.4556 2.84764 11.5675 2.84764 10.86 3.45708L2.32123 10.8267C2.10702 11.0086 2 11.2562 2 11.4909ZM17.1777 7.41193L19.4926 9.41427V5.34877C19.4926 4.96908 19.2573 4.72719 18.8879 4.72719H17.7839C17.4212 4.72719 17.1777 4.96908 17.1777 5.34877V7.41193Z" />
</svg>
