<svg width="30" height="30" viewBox="0 0 30 30" xmlns="http://www.w3.org/2000/svg">
<path d="M17.1455 22.1457H12.8478V16.8304C12.8478 16.4478 13.1048 16.1992 13.4876 16.1992H16.5139C16.8967 16.1992 17.1455 16.4478 17.1455 16.8304V22.1457ZM7.64964 21.8623C7.64964 23.0387 8.38961 23.75 9.60256 23.75H20.4094C21.6224 23.75 22.3542 23.0387 22.3542 21.8623V15.6231L15.5091 9.88542C15.1903 9.6175 14.8112 9.62421 14.4992 9.88542L7.64964 15.6231V21.8623ZM5 14.505C5 14.9277 5.31828 15.2883 5.83748 15.2883C6.092 15.2883 6.31883 15.1567 6.51894 14.9924L14.6583 8.16863C14.8784 7.97391 15.1365 7.97391 15.3581 8.16863L23.4931 14.9924C23.6879 15.1567 23.9147 15.2883 24.1693 15.2883C24.6399 15.2883 25 14.9963 25 14.5252C25 14.2486 24.893 14.0347 24.6855 13.8579L16.1565 6.69439C15.4556 6.10187 14.5675 6.10187 13.86 6.69439L5.32123 13.8593C5.10702 14.0376 5 14.2769 5 14.505ZM20.0672 10.5394L22.3822 12.4861V8.53352C22.3822 8.16439 22.1468 7.92922 21.7774 7.92922H20.6735C20.3108 7.92922 20.0672 8.16439 20.0672 8.53352V10.5394Z" />
</svg>
