<svg viewBox="0 0 115.1368408203125 89.9912109375" version="1.1" xmlns="http://www.w3.org/2000/svg" style="height: 19.1579px; width: 24.5111px;">
  <g transform="matrix(1 0 0 1 -12.451118164062564 80.2255859375)">
    <path d="M 27.7832 9.76562 L 112.256 9.76562 C 122.51 9.76562 127.588 4.6875 127.588 -5.37109 L 127.588 -64.9902 C 127.588 -75.0488 122.51 -80.127 112.256 -80.127 L 27.7832 -80.127 C 17.5781 -80.127 12.4512 -75.0977 12.4512 -64.9902 L 12.4512 -5.37109 C 12.4512 4.73633 17.5781 9.76562 27.7832 9.76562 Z M 27.8809 1.9043 C 22.998 1.9043 20.3125 -0.683594 20.3125 -5.76172 L 20.3125 -64.5996 C 20.3125 -69.6777 22.998 -72.2656 27.8809 -72.2656 L 49.6582 -72.2656 L 49.6582 1.9043 Z M 112.158 -72.2656 C 116.992 -72.2656 119.727 -69.6777 119.727 -64.5996 L 119.727 -5.76172 C 119.727 -0.683594 116.992 1.9043 112.158 1.9043 L 57.3242 1.9043 L 57.3242 -72.2656 Z M 40.2344 -54.1504 C 41.748 -54.1504 43.0176 -55.4688 43.0176 -56.8848 C 43.0176 -58.3496 41.748 -59.6191 40.2344 -59.6191 L 29.7852 -59.6191 C 28.3203 -59.6191 27.002 -58.3496 27.002 -56.8848 C 27.002 -55.4688 28.3203 -54.1504 29.7852 -54.1504 Z M 40.2344 -41.5039 C 41.748 -41.5039 43.0176 -42.8223 43.0176 -44.2871 C 43.0176 -45.752 41.748 -46.9727 40.2344 -46.9727 L 29.7852 -46.9727 C 28.3203 -46.9727 27.002 -45.752 27.002 -44.2871 C 27.002 -42.8223 28.3203 -41.5039 29.7852 -41.5039 Z M 40.2344 -28.9062 C 41.748 -28.9062 43.0176 -30.127 43.0176 -31.5918 C 43.0176 -33.0566 41.748 -34.3262 40.2344 -34.3262 L 29.7852 -34.3262 C 28.3203 -34.3262 27.002 -33.0566 27.002 -31.5918 C 27.002 -30.127 28.3203 -28.9062 29.7852 -28.9062 Z"></path>
  </g>
</svg>