<svg width="17" height="20" viewBox="0 0 17 20" fill="none" xmlns="http://www.w3.org/2000/svg">
<path d="M0 15.3243C0 16.031 0.504504 16.4957 1.36036 16.4957H5.16215C5.23423 18.364 6.59459 20 8.4955 20C10.4054 20 11.7658 18.3737 11.8378 16.4957H15.6397C16.4865 16.4957 17 16.031 17 15.3243C17 14.3563 16.0811 13.485 15.3063 12.6234C14.7117 11.9555 14.5496 10.5809 14.4774 9.46755C14.4144 5.65345 13.4955 3.19459 11.0991 2.26525C10.7928 0.997096 9.82885 0 8.4955 0C7.17116 0 6.19819 0.997096 5.90089 2.26525C3.5045 3.19459 2.58558 5.65345 2.52252 9.46755C2.45045 10.5809 2.28828 11.9555 1.69369 12.6234C0.909906 13.485 0 14.3563 0 15.3243ZM1.74775 15.0339V14.9177C1.90991 14.637 2.45045 14.0658 2.91892 13.5044C3.56756 12.73 3.87387 11.4811 3.95495 9.59345C4.02702 5.36303 5.19819 4.01743 6.73873 3.56245C6.96396 3.50436 7.09009 3.38819 7.0991 3.1365C7.12612 2.12972 7.66666 1.42305 8.4955 1.42305C9.33331 1.42305 9.86483 2.12972 9.90089 3.1365C9.90988 3.38819 10.027 3.50436 10.2522 3.56245C11.8018 4.01743 12.973 5.36303 13.0451 9.59345C13.1261 11.4811 13.4325 12.73 14.0721 13.5044C14.5496 14.0658 15.0811 14.637 15.2432 14.9177V15.0339H1.74775ZM6.56756 16.4957H10.4324C10.3604 17.8122 9.58562 18.6351 8.4955 18.6351C7.41441 18.6351 6.63062 17.8122 6.56756 16.4957Z" />
</svg>
