<svg width="56" height="56" viewBox="0 0 56 56" fill="none" xmlns="http://www.w3.org/2000/svg">
<path fill-rule="evenodd" clip-rule="evenodd" d="M0.726562 30.4008C6.97882 41.1172 15.392 49.6316 26.0444 55.7626H3.97513C2.18042 55.7626 0.726562 54.3076 0.726562 52.5141V30.4008Z" fill="#FD415E"/>
<path fill-rule="evenodd" clip-rule="evenodd" d="M0.726562 3.96542C0.726562 2.17625 2.17601 0.726791 3.9641 0.726791H14.9916L55.7702 41.4515V52.3984C55.7702 53.2908 55.4161 54.1461 54.7852 54.7774C54.1542 55.4077 53.2993 55.7626 52.4069 55.7626H41.4578L0.726562 15.0379" fill="#FD415E"/>
<path fill-rule="evenodd" clip-rule="evenodd" d="M30.457 0.726791H52.5164C53.379 0.726791 54.2063 1.06977 54.8163 1.67926C55.4274 2.28985 55.7694 3.1178 55.7694 3.98071V26.0569C49.4962 15.6157 41.1271 7.08607 30.457 0.726791Z" fill="#FD415E"/>
</svg>
