<svg width="18" height="18" viewBox="0 0 18 18" fill="none" xmlns="http://www.w3.org/2000/svg">
<path d="M6.81137 18C7.26059 18 7.61579 17.7998 7.86652 17.4101L17.7388 1.73785C17.9269 1.43242 18 1.2007 18 0.958458C18 0.379164 17.6239 0 17.0493 0C16.6314 0 16.4016 0.136922 16.1509 0.537159L6.76959 15.6091L1.90133 9.18432C1.64016 8.81564 1.379 8.66824 1.0029 8.66824C0.407429 8.66824 0 9.07898 0 9.65824C0 9.90055 0.104469 10.1744 0.30296 10.4271L5.7249 17.3891C6.03831 17.7998 6.36216 18 6.81137 18Z" />
</svg>
