<svg width="15" height="15" viewBox="0 0 15 15" fill="none" xmlns="http://www.w3.org/2000/svg">
<path d="M0 6.0669C0 9.41205 2.74821 12.1338 6.1259 12.1338C7.46161 12.1338 8.6822 11.7081 9.68786 10.9934L13.4647 14.7415C13.6413 14.9164 13.8716 15 14.1172 15C14.6393 15 15 14.6122 15 14.1029C15 13.8596 14.9079 13.6391 14.7467 13.4794L10.9928 9.73896C11.7836 8.72022 12.2518 7.4506 12.2518 6.0669C12.2518 2.72174 9.50359 0 6.1259 0C2.74821 0 0 2.72174 0 6.0669ZM1.3127 6.0669C1.3127 3.43639 3.46981 1.30005 6.1259 1.30005C8.78197 1.30005 10.9391 3.43639 10.9391 6.0669C10.9391 8.69738 8.78197 10.8337 6.1259 10.8337C3.46981 10.8337 1.3127 8.69738 1.3127 6.0669Z"/>
</svg>
