<svg width="11" height="11" viewBox="0 0 11 11" fill="none" xmlns="http://www.w3.org/2000/svg">
<path d="M4.26158 11C4.69292 11 5.06845 10.7823 5.32613 10.3889L10.7007 1.83407C10.8524 1.57968 11 1.29519 11 1.00949C11 0.40751 10.4672 0 9.89955 0C9.5395 0 9.22069 0.203265 8.9663 0.616409L4.22219 8.3744L1.986 5.47579C1.69109 5.08883 1.40931 4.95894 1.0467 4.95894C0.464983 4.95894 0 5.43764 0 6.04744C0 6.3329 0.110372 6.60857 0.308962 6.87176L3.15323 10.3978C3.47327 10.8146 3.82593 11 4.26158 11Z" />
</svg>
