<svg width="26" height="26" viewBox="0 0 26 26" fill="none" xmlns="http://www.w3.org/2000/svg">
<path d="M13 26C20.1118 26 26 20.0991 26 13C26 5.88824 20.0991 0 12.9873 0C5.88824 0 0 5.88824 0 13C0 20.0991 5.90099 26 13 26ZM13.0127 19.5765C12.4392 19.5765 12.0187 19.1687 12.0187 18.5823V12.0441L12.1333 9.25296L10.8206 10.8334L9.2657 12.401C9.08727 12.5794 8.83237 12.6942 8.56472 12.6942C8.01668 12.6942 7.60883 12.2736 7.60883 11.7383C7.60883 11.4579 7.68531 11.2284 7.86374 11.0501L12.248 6.67844C12.5157 6.4108 12.7323 6.30883 13.0127 6.30883C13.3059 6.30883 13.5353 6.42354 13.7902 6.67844L18.1618 11.0501C18.3403 11.2284 18.4422 11.4579 18.4422 11.7383C18.4422 12.2736 18.0216 12.6942 17.4736 12.6942C17.1932 12.6942 16.951 12.5922 16.7726 12.401L15.2304 10.8334L13.8921 9.24021L14.0069 12.0441V18.5823C14.0069 19.1687 13.599 19.5765 13.0127 19.5765Z"/>
</svg>
