<svg width="24" height="24" viewBox="0 0 24 24"  xmlns="http://www.w3.org/2000/svg">
<path d="M12.0009 22.5228C12.2571 22.5228 12.5048 22.5015 12.7735 22.4822L13.3574 23.6155C13.4948 23.8933 13.759 24.0317 14.0893 23.992C14.3861 23.9349 14.595 23.6996 14.6408 23.3879L14.8157 22.1247C15.311 21.9851 15.7957 21.794 16.2613 21.5961L17.1864 22.4386C17.4126 22.6517 17.7084 22.6932 18.0033 22.5335C18.2648 22.3757 18.3764 22.0921 18.3144 21.7735L18.0554 20.5298C18.4704 20.236 18.8766 19.9052 19.2466 19.5338L20.3906 20.0185C20.6836 20.1473 20.9756 20.0718 21.1979 19.8103C21.3936 19.5829 21.4136 19.2741 21.2456 18.9982L20.5776 17.9105C20.8722 17.4983 21.1111 17.0367 21.3396 16.5556L22.604 16.6176C22.9113 16.6409 23.1717 16.458 23.2739 16.1657C23.3712 15.8684 23.2825 15.5665 23.0391 15.3767L22.049 14.5857C22.1762 14.092 22.2776 13.5771 22.3282 13.0397L23.5104 12.651C23.8196 12.5523 24 12.3151 24 11.9947C24 11.6723 23.8196 11.4371 23.5104 11.3296L22.3282 10.9496C22.2776 10.4123 22.1762 9.90803 22.049 9.40374L23.0372 8.61263C23.2739 8.41902 23.3712 8.13159 23.2739 7.83627C23.1717 7.54202 22.9113 7.36099 22.604 7.3823L21.3396 7.42303C21.1111 6.94391 20.8722 6.49975 20.5776 6.06626L21.2456 4.98241C21.4117 4.72782 21.385 4.41714 21.1979 4.18963C20.9756 3.9282 20.6854 3.86147 20.3887 3.98152L19.2428 4.4536C18.8766 4.09474 18.4704 3.75335 18.0554 3.45761L18.3144 2.2245C18.385 1.89528 18.2629 1.61168 17.9976 1.46264C17.7065 1.29803 17.4088 1.33384 17.1864 1.55944L16.2613 2.39509C15.7957 2.18655 15.3091 2.0149 14.8157 1.86457L14.6408 0.612064C14.595 0.300324 14.3775 0.065134 14.075 0.00606977C13.759 -0.0316716 13.49 0.108632 13.3612 0.37005L12.7735 1.5072C12.5048 1.4878 12.2571 1.47713 12.0009 1.47713C11.7342 1.47713 11.4952 1.4878 11.2265 1.5072L10.634 0.371969C10.5013 0.106713 10.2323 -0.0316716 9.91066 0.00798875C9.61388 0.065134 9.3963 0.300324 9.35908 0.612064L9.17558 1.86457C8.68223 2.0149 8.20423 2.17781 7.73001 2.39509L6.8068 1.56136C6.58252 1.33384 6.28486 1.30677 5.98996 1.46264C5.72846 1.61168 5.60633 1.89528 5.67506 2.22642L5.93593 3.45761C5.52961 3.75335 5.11467 4.09474 4.7466 4.4536L3.60078 3.98152C3.30586 3.86147 3.0244 3.9282 2.80201 4.18963C2.60631 4.41714 2.57962 4.72782 2.74379 4.98241L3.4137 6.06626C3.12783 6.49975 2.8802 6.94391 2.65171 7.42303L1.39596 7.3823C1.08864 7.36099 0.819582 7.54202 0.715532 7.83436C0.6201 8.13159 0.715532 8.42286 0.952222 8.61263L1.94038 9.40565C1.81322 9.90803 1.71379 10.4123 1.68036 10.9409L0.479051 11.3296C0.171735 11.4371 0 11.6723 0 11.9947C0 12.3151 0.171735 12.5523 0.479051 12.651L1.68036 13.0397C1.71379 13.5771 1.81322 14.092 1.94038 14.5857L0.954115 15.3767C0.715532 15.5597 0.628719 15.8596 0.715532 16.1638C0.819582 16.458 1.08864 16.6409 1.39785 16.6176L2.65171 16.5556C2.8802 17.0367 3.12783 17.4983 3.4137 17.9105L2.74189 19.0001C2.57772 19.2722 2.60631 19.5829 2.80201 19.8103C3.0244 20.0718 3.30586 20.1473 3.60267 20.0147L4.74471 19.5338C5.11467 19.9052 5.52961 20.236 5.93593 20.5298L5.67506 21.7754C5.61684 22.0921 5.72657 22.3757 5.99373 22.5374C6.28297 22.6932 6.58062 22.6555 6.8049 22.4406L7.73001 21.5961C8.20423 21.794 8.68034 21.9851 9.17558 22.1247L9.35908 23.3879C9.3963 23.6996 9.61388 23.9349 9.91631 23.9939C10.2323 24.0317 10.4927 23.8913 10.634 23.6174L11.2265 22.4822C11.4865 22.5015 11.7342 22.5228 12.0009 22.5228ZM12.0009 20.5964C7.28753 20.5964 3.61801 16.7672 3.61801 12.0034C3.61801 7.23091 7.28753 3.40173 12.0009 3.40173C16.7162 3.40173 20.3838 7.23091 20.3838 12.0034C20.3838 16.7672 16.7162 20.5964 12.0009 20.5964ZM9.98572 10.1886L11.3756 9.30794L7.92045 3.29896L6.46774 4.08599L9.98572 10.1886ZM14.5698 12.8132H21.4674L21.4569 11.1558H14.5717L14.5698 12.8132ZM11.3747 14.7037L10.0011 13.7902L6.35697 19.856L7.79348 20.6701L11.3747 14.7037ZM11.9837 14.984C13.5955 14.984 14.9047 13.656 14.9047 12.0122C14.9047 10.3684 13.5955 9.04038 11.9837 9.04038C10.3613 9.04038 9.05406 10.3684 9.05406 12.0122C9.05406 13.656 10.3613 14.984 11.9837 14.984ZM11.9837 13.2983C11.2622 13.2983 10.7158 12.7352 10.7158 12.0122C10.7158 11.2891 11.2622 10.7259 11.9837 10.7259C12.6965 10.7259 13.2431 11.2891 13.2431 12.0122C13.2431 12.7352 12.6965 13.2983 11.9837 13.2983Z" />
</svg>
