<svg width="26" height="26" viewBox="0 0 26 26" fill="none" xmlns="http://www.w3.org/2000/svg">
<path d="M13 24.4015C13.3002 24.4015 13.5889 24.3781 13.9006 24.3547L14.5586 25.6312C14.6972 25.9007 14.9397 26.0295 15.2629 25.9943C15.5516 25.9357 15.7478 25.7133 15.7939 25.4088L15.9903 23.9916C16.5675 23.8276 17.1332 23.6051 17.6759 23.3709L18.7149 24.3195C18.9343 24.5304 19.2114 24.5655 19.5 24.4132C19.754 24.2609 19.8579 23.9916 19.8002 23.6754L19.5116 22.2817C19.9965 21.942 20.4698 21.5555 20.897 21.1222L22.1785 21.661C22.4672 21.7898 22.7442 21.7195 22.9636 21.4618C23.1599 21.2393 23.1714 20.9465 23.0098 20.6771L22.2594 19.4591C22.6057 18.9789 22.8828 18.4402 23.1483 17.878L24.5684 17.9482C24.8686 17.9717 25.1111 17.796 25.215 17.5149C25.3073 17.2222 25.2265 16.941 24.9841 16.7536L23.8757 15.8636C24.0258 15.2897 24.1412 14.6924 24.199 14.0599L25.5267 13.6266C25.8268 13.5329 26 13.3104 26 12.9942C26 12.6779 25.8268 12.4554 25.5267 12.35L24.199 11.9284C24.1412 11.296 24.0258 10.7103 23.8757 10.1247L24.9841 9.23464C25.215 9.04725 25.3073 8.77788 25.215 8.48508C25.1111 8.204 24.8686 8.02832 24.5684 8.05175L23.1483 8.09859C22.8828 7.53642 22.6057 7.0211 22.2594 6.51749L23.0098 5.29945C23.1714 5.05351 23.1483 4.76071 22.9636 4.53818C22.7442 4.28052 22.4672 4.22196 22.1785 4.33908L20.897 4.86612C20.4698 4.44449 19.9965 4.04628 19.5116 3.70664L19.8002 2.32464C19.8695 1.99671 19.754 1.72733 19.5 1.5868C19.2114 1.42282 18.9343 1.45796 18.7149 1.68049L17.6759 2.61744C17.1332 2.37149 16.5675 2.17238 15.9903 1.99671L15.7939 0.591284C15.7478 0.286775 15.5399 0.0642501 15.2514 0.00569076C14.9397 -0.0294448 14.6856 0.0993857 14.5586 0.357047L13.9006 1.63364C13.5889 1.61021 13.3002 1.5985 13 1.5985C12.6883 1.5985 12.4112 1.61021 12.0994 1.63364L11.4299 0.357047C11.3029 0.0993857 11.0488 -0.0294448 10.7371 0.00569076C10.4485 0.0642501 10.2407 0.286775 10.2061 0.591284L9.9982 1.99671C9.42097 2.17238 8.86679 2.35977 8.31262 2.61744L7.27354 1.68049C7.05418 1.45796 6.7771 1.43454 6.48846 1.5868C6.23446 1.72733 6.11901 1.99671 6.18828 2.32464L6.47692 3.70664C6.00356 4.04628 5.51865 4.44449 5.09148 4.86612L3.80995 4.33908C3.52132 4.22196 3.25578 4.28052 3.03641 4.53818C2.84014 4.76071 2.81706 5.05351 2.97869 5.29945L3.72914 6.51749C3.39432 7.0211 3.10568 7.53642 2.84014 8.09859L1.43161 8.05175C1.13144 8.02832 0.877443 8.204 0.773535 8.48508C0.681173 8.77788 0.773535 9.04725 1.00444 9.23464L2.11279 10.1247C1.9627 10.7103 1.84725 11.296 1.81261 11.9167L0.461812 12.35C0.161634 12.4554 0 12.6779 0 12.9942C0 13.3104 0.161634 13.5329 0.461812 13.6266L1.81261 14.0599C1.84725 14.6924 1.9627 15.2897 2.11279 15.8636L1.00444 16.7536C0.773535 16.9293 0.692718 17.2104 0.773535 17.5149C0.877443 17.796 1.13144 17.9717 1.43161 17.9482L2.84014 17.878C3.10568 18.4402 3.39432 18.9789 3.72914 19.4591L2.97869 20.6771C2.81706 20.9465 2.84014 21.2393 3.03641 21.4618C3.25578 21.7195 3.52132 21.7898 3.80995 21.661L5.09148 21.1222C5.51865 21.5555 6.00356 21.942 6.47692 22.2817L6.18828 23.6754C6.13056 23.9916 6.23446 24.2609 6.48846 24.4132C6.7771 24.5655 7.05418 24.5304 7.27354 24.3195L8.31262 23.3709C8.86679 23.6051 9.42097 23.8276 9.9982 23.9916L10.2061 25.4088C10.2407 25.7133 10.4485 25.9357 10.7371 25.9943C11.0488 26.0295 11.2913 25.9007 11.4299 25.6312L12.0994 24.3547C12.3996 24.3781 12.6883 24.4015 13 24.4015ZM13 22.633C7.71226 22.633 3.62523 18.3465 3.62523 13.0059C3.62523 7.65354 7.71226 3.367 13 3.367C18.2878 3.367 22.3748 7.65354 22.3748 13.0059C22.3748 18.3465 18.2878 22.633 13 22.633ZM10.9796 11.0734L12.2611 10.2536L8.34726 3.46069L7.01954 4.22196L10.9796 11.0734ZM15.6786 13.7437H23.4716L23.4601 12.2329H15.6786V13.7437ZM12.2726 15.7698L11.0027 14.9266L6.90409 21.7312L8.22026 22.5159L12.2726 15.7698ZM12.9769 16.086C14.6395 16.086 15.9903 14.7157 15.9903 13.0175C15.9903 11.3193 14.6395 9.94906 12.9769 9.94906C11.3029 9.94906 9.95209 11.3193 9.95209 13.0175C9.95209 14.7157 11.3029 16.086 12.9769 16.086ZM12.9769 14.4347C12.1803 14.4347 11.5799 13.814 11.5799 13.0175C11.5799 12.2212 12.1803 11.6005 12.9769 11.6005C13.7621 11.6005 14.3623 12.2212 14.3623 13.0175C14.3623 13.814 13.7621 14.4347 12.9769 14.4347Z" />
</svg>
