<svg width="26" height="26" viewBox="0 0 26 26" fill="none" xmlns="http://www.w3.org/2000/svg">
<path d="M13.001 24.3997C13.2786 24.3997 13.5468 24.3767 13.8379 24.3557L14.4705 25.5834C14.6194 25.8844 14.9056 26.0343 15.2634 25.9914C15.585 25.9295 15.8112 25.6746 15.8609 25.3369L16.0504 23.9684C16.5869 23.8172 17.112 23.6102 17.6164 23.3958L18.6186 24.3085C18.8636 24.5393 19.1841 24.5843 19.5035 24.4113C19.7869 24.2404 19.9077 23.9332 19.8406 23.588L19.56 22.2406C20.0096 21.9223 20.4497 21.564 20.8505 21.1617L22.0898 21.6867C22.4072 21.8263 22.7235 21.7444 22.9644 21.4612C23.1764 21.2148 23.1981 20.8803 23.0161 20.5814L22.2924 19.4031C22.6115 18.9565 22.8704 18.4564 23.1179 17.9352L24.4877 18.0024C24.8206 18.0277 25.1027 17.8295 25.2134 17.5128C25.3188 17.1908 25.2227 16.8637 24.959 16.6581L23.8865 15.8011C24.0242 15.2663 24.134 14.7085 24.1889 14.1263L25.4696 13.7053C25.8046 13.5983 26 13.3414 26 12.9943C26 12.645 25.8046 12.3902 25.4696 12.2738L24.1889 11.8621C24.134 11.28 24.0242 10.7337 23.8865 10.1874L24.957 9.33035C25.2134 9.12061 25.3188 8.80922 25.2134 8.4893C25.1027 8.17052 24.8206 7.9744 24.4877 7.9975L23.1179 8.04162C22.8704 7.52257 22.6115 7.04139 22.2924 6.57178L23.0161 5.39761C23.196 5.1218 23.1671 4.78523 22.9644 4.53876C22.7235 4.25555 22.4092 4.18326 22.0877 4.31331L20.8464 4.82473C20.4497 4.43597 20.0096 4.06613 19.56 3.74575L19.8406 2.40987C19.9171 2.05322 19.7848 1.74599 19.4974 1.58453C19.182 1.40619 18.8596 1.445 18.6186 1.6894L17.6164 2.59468C17.112 2.36876 16.5848 2.18281 16.0504 2.01995L15.8609 0.66307C15.8112 0.325351 15.5756 0.0705619 15.2479 0.00657558C14.9056 -0.0343109 14.6141 0.117685 14.4746 0.400888L13.8379 1.6328C13.5468 1.61178 13.2786 1.60023 13.001 1.60023C12.712 1.60023 12.4531 1.61178 12.1621 1.6328L11.5201 0.402967C11.3764 0.115606 11.085 -0.0343109 10.7365 0.00865448C10.415 0.0705619 10.1793 0.325351 10.139 0.66307L9.94022 2.01995C9.40575 2.18281 8.88792 2.35929 8.37418 2.59468L7.37403 1.69147C7.13106 1.445 6.8086 1.41567 6.48912 1.58453C6.20584 1.74599 6.07352 2.05322 6.14799 2.41195L6.43059 3.74575C5.99041 4.06613 5.54089 4.43597 5.14215 4.82473L3.90085 4.31331C3.58135 4.18326 3.27643 4.25555 3.03551 4.53876C2.8235 4.78523 2.79458 5.1218 2.97244 5.39761L3.69818 6.57178C3.38848 7.04139 3.12022 7.52257 2.87269 8.04162L1.51229 7.9975C1.17937 7.9744 0.88788 8.17052 0.775159 8.48722C0.671775 8.80922 0.775159 9.12477 1.03157 9.33035L2.10208 10.1895C1.96432 10.7337 1.8566 11.28 1.82039 11.8526L0.518972 12.2738C0.186046 12.3902 0 12.645 0 12.9943C0 13.3414 0.186046 13.5983 0.518972 13.7053L1.82039 14.1263C1.8566 14.7085 1.96432 15.2663 2.10208 15.8011L1.03362 16.6581C0.775159 16.8563 0.681112 17.1813 0.775159 17.5107C0.88788 17.8295 1.17937 18.0277 1.51434 18.0024L2.87269 17.9352C3.12022 18.4564 3.38848 18.9565 3.69818 19.4031L2.97039 20.5834C2.79253 20.8782 2.8235 21.2148 3.03551 21.4612C3.27643 21.7444 3.58135 21.8263 3.9029 21.6826L5.1401 21.1617C5.54089 21.564 5.99041 21.9223 6.43059 22.2406L6.14799 23.5901C6.08491 23.9332 6.20379 24.2404 6.49321 24.4155C6.80655 24.5843 7.12901 24.5434 7.37198 24.3106L8.37418 23.3958C8.88792 23.6102 9.4037 23.8172 9.94022 23.9684L10.139 25.3369C10.1793 25.6746 10.415 25.9295 10.7427 25.9934C11.085 26.0343 11.3671 25.8823 11.5201 25.5855L12.1621 24.3557C12.4438 24.3767 12.712 24.3997 13.001 24.3997ZM13.001 22.3127C7.89482 22.3127 3.91951 18.1645 3.91951 13.0037C3.91951 7.83348 7.89482 3.68521 13.001 3.68521C18.1092 3.68521 22.0825 7.83348 22.0825 13.0037C22.0825 18.1645 18.1092 22.3127 13.001 22.3127ZM10.8179 11.0377L12.3236 10.0836L8.58049 3.57388L7.00672 4.42649L10.8179 11.0377ZM15.7839 13.881H23.2564L23.245 12.0854H15.786L15.7839 13.881ZM12.3226 15.9291L10.8345 14.9394L6.88672 21.5107L8.44294 22.3926L12.3226 15.9291ZM12.9823 16.2326C14.7285 16.2326 16.1467 14.7939 16.1467 13.0132C16.1467 11.2324 14.7285 9.79375 12.9823 9.79375C11.2248 9.79375 9.80856 11.2324 9.80856 13.0132C9.80856 14.7939 11.2248 16.2326 12.9823 16.2326ZM12.9823 14.4065C12.2008 14.4065 11.6088 13.7964 11.6088 13.0132C11.6088 12.2298 12.2008 11.6197 12.9823 11.6197C13.7545 11.6197 14.3466 12.2298 14.3466 13.0132C14.3466 13.7964 13.7545 14.4065 12.9823 14.4065Z" />
</svg>
