<svg width="26" height="26" viewBox="0 0 26 26"  xmlns="http://www.w3.org/2000/svg">
<path d="M21 13.5C21 13.2347 20.8972 12.9484 20.6049 12.686L14.7802 7.52771C14.3571 7.15181 14.0839 7 13.6942 7C13.1143 7 12.6922 7.43097 12.6922 7.96343V10.6052H6.79943C5.66509 10.6052 5 11.2224 5 12.2886V14.731C5 15.7972 5.66509 16.4119 6.79943 16.4119H12.6922V19.0665C12.6922 19.599 13.1143 20 13.6822 20C14.0784 20 14.3952 19.8489 14.7802 19.5079L20.6036 14.3095C20.8884 14.0529 21 13.7546 21 13.5Z" />
<path d="M13 0C20.1793 0 26 5.82075 26 13C26 20.1793 20.1793 26 13 26C5.82075 26 0 20.1793 0 13C0 5.82075 5.82075 0 13 0ZM13 1.08333C6.41875 1.08333 1.08333 6.41875 1.08333 13C1.08333 19.5813 6.41875 24.9167 13 24.9167C19.5813 24.9167 24.9167 19.5813 24.9167 13C24.9167 6.41875 19.5813 1.08333 13 1.08333Z" />
</svg>
