<svg width="38" height="37" viewBox="0 0 38 37" fill="none" xmlns="http://www.w3.org/2000/svg">
<path d="M36.9551 14.256C36.8302 13.8696 36.4794 13.5942 36.065 13.5942H23.7083L19.8895 1.59171C19.7347 1.23974 19.3951 1 18.9994 1C18.6036 1 18.2641 1.24102 18.1118 1.58533L18.1093 1.59171L14.2904 13.5942H1.93505C1.41821 13.5942 1 14.0227 1 14.5506C1 14.8669 1.15106 15.1487 1.38326 15.3221L1.38575 15.3234L11.3817 22.7427L7.56282 34.7452C7.53411 34.8344 7.51663 34.9365 7.51663 35.0423C7.51663 35.5702 7.93609 35.9987 8.45293 35.9987C8.65891 35.9987 8.84992 35.9299 9.00472 35.8151L9.00222 35.8164L18.9994 28.3971L28.994 35.8164C29.1463 35.9311 29.3373 36 29.5446 36C30.0614 36 30.4809 35.5715 30.4809 35.0436C30.4809 34.9377 30.4634 34.8344 30.4322 34.7388L30.4347 34.7452L26.6158 22.7427L36.6155 15.3234C36.8502 15.1474 37 14.8681 37 14.5519C37 14.446 36.9825 14.344 36.9526 14.2484L36.9551 14.2548V14.256Z" stroke-width="2"/>
</svg>
