<svg width="34" height="33" viewBox="0 0 34 33" fill="none" xmlns="http://www.w3.org/2000/svg">
<path d="M31.9625 12.9836C31.8585 12.6634 31.5662 12.4352 31.2208 12.4352H20.9236L17.7412 2.49027C17.6122 2.19865 17.3293 2 16.9995 2C16.6697 2 16.3867 2.1997 16.2598 2.48499L16.2577 2.49027L13.0754 12.4352H2.77921C2.34851 12.4352 2 12.7902 2 13.2276C2 13.4897 2.12588 13.7232 2.31938 13.8669L2.32146 13.868L10.6514 20.0154L7.46902 29.9603C7.44509 30.0343 7.43052 30.1188 7.43052 30.2065C7.43052 30.6439 7.78008 30.9989 8.21077 30.9989C8.38243 30.9989 8.5416 30.9419 8.6706 30.8468L8.66852 30.8478L16.9995 24.7004L25.3284 30.8478C25.4553 30.9429 25.6145 31 25.7871 31C26.2178 31 26.5674 30.645 26.5674 30.2075C26.5674 30.1198 26.5528 30.0343 26.5268 29.955L26.5289 29.9603L23.3465 20.0154L31.6796 13.868C31.8752 13.7221 32 13.4907 32 13.2287C32 13.141 31.9854 13.0565 31.9605 12.9772L31.9625 12.9825V12.9836Z"  stroke-width="2"/>
</svg>
