<svg width="34" height="34" viewBox="0 0 34 34" fill="none" xmlns="http://www.w3.org/2000/svg">
<path d="M32.2817 13.4927C32.1755 13.1707 31.8769 12.9412 31.5242 12.9412H21.0075L17.7574 2.941C17.6256 2.64775 17.3366 2.448 16.9998 2.448C16.663 2.448 16.374 2.64881 16.2444 2.93569L16.2422 2.941L12.992 12.9412H2.47648C2.0366 12.9412 1.68066 13.2982 1.68066 13.7381C1.68066 14.0016 1.80923 14.2364 2.00685 14.3809L2.00898 14.382L10.5164 20.5636L7.26623 30.5639C7.24179 30.6383 7.22691 30.7232 7.22691 30.8114C7.22691 31.2513 7.58391 31.6083 8.02379 31.6083C8.1991 31.6083 8.36166 31.5509 8.49341 31.4553L8.49129 31.4564L16.9998 25.2747L25.5062 31.4564C25.6358 31.552 25.7984 31.6094 25.9747 31.6094C26.4146 31.6094 26.7716 31.2524 26.7716 30.8125C26.7716 30.7243 26.7567 30.6382 26.7302 30.5586L26.7323 30.5639L23.4821 20.5636L31.9927 14.382C32.1925 14.2354 32.32 14.0027 32.32 13.7392C32.32 13.651 32.3051 13.566 32.2796 13.4863L32.2817 13.4916V13.4927Z" />
</svg>
