<svg width="36" height="35" viewBox="0 0 36 35" fill="none" xmlns="http://www.w3.org/2000/svg">
<path d="M32.9625 13.9836C32.8585 13.6634 32.5662 13.4352 32.2208 13.4352H21.9236L18.7412 3.49027C18.6122 3.19865 18.3293 3 17.9995 3C17.6697 3 17.3867 3.1997 17.2598 3.48499L17.2577 3.49027L14.0754 13.4352H3.77921C3.34851 13.4352 3 13.7902 3 14.2276C3 14.4897 3.12588 14.7232 3.31938 14.8669L3.32146 14.868L11.6514 21.0154L8.46902 30.9603C8.44509 31.0343 8.43052 31.1188 8.43052 31.2065C8.43052 31.6439 8.78008 31.9989 9.21077 31.9989C9.38243 31.9989 9.5416 31.9419 9.6706 31.8468L9.66852 31.8478L17.9995 25.7004L26.3284 31.8478C26.4553 31.9429 26.6145 32 26.7871 32C27.2178 32 27.5674 31.645 27.5674 31.2075C27.5674 31.1198 27.5528 31.0343 27.5268 30.955L27.5289 30.9603L24.3465 21.0154L32.6796 14.868C32.8752 14.7221 33 14.4907 33 14.2287C33 14.141 32.9854 14.0565 32.9605 13.9772L32.9625 13.9825V13.9836Z" />
</svg>
