<svg width="32" height="31" viewBox="0 0 32 31" fill="none" xmlns="http://www.w3.org/2000/svg">
<path d="M30.9625 11.9836C30.8585 11.6634 30.5662 11.4352 30.2208 11.4352H19.9236L16.7412 1.49027C16.6122 1.19865 16.3293 1 15.9995 1C15.6697 1 15.3867 1.1997 15.2598 1.48499L15.2577 1.49027L12.0754 11.4352H1.77921C1.34851 11.4352 1 11.7902 1 12.2276C1 12.4897 1.12588 12.7232 1.31938 12.8669L1.32146 12.868L9.65139 19.0154L6.46902 28.9603C6.44509 29.0343 6.43052 29.1188 6.43052 29.2065C6.43052 29.6439 6.78008 29.9989 7.21077 29.9989C7.38243 29.9989 7.5416 29.9419 7.6706 29.8468L7.66852 29.8479L15.9995 23.7004L24.3284 29.8479C24.4553 29.9429 24.6145 30 24.7871 30C25.2178 30 25.5674 29.645 25.5674 29.2075C25.5674 29.1198 25.5528 29.0343 25.5268 28.955L25.5289 28.9603L22.3465 19.0154L30.6796 12.868C30.8752 12.7221 31 12.4907 31 12.2287C31 12.141 30.9854 12.0565 30.9605 11.9772L30.9625 11.9825V11.9836Z" stroke-width="1.5"/>
</svg>
