<svg width="25" height="25" viewBox="0 0 25 25" fill="none" xmlns="http://www.w3.org/2000/svg">
<path d="M12.105 24.2301C18.7369 24.2301 24.2121 18.7549 24.2121 12.123C24.2121 5.50288 18.7273 0.0180359 12.0954 0.0180359C5.47523 0.0180359 0 5.50288 0 12.123C0 18.7549 5.48484 24.2301 12.105 24.2301Z" fill="#073C8A"/>
<path d="M12.4081 19.0446C8.51047 19.0446 5.5332 16.2424 5.5332 12.3255C5.5332 9.54444 7.18367 6.90819 9.66406 5.92475C9.82906 5.86194 9.99734 5.83429 10.0941 5.83429C10.3571 5.83429 10.5083 6.04733 10.5083 6.25593C10.5083 6.33772 10.4956 6.45256 10.4147 6.61756C10.19 7.17069 9.99922 8.19069 9.99922 8.96624C9.99922 12.4833 12.2469 14.6852 15.7862 14.6852C16.5929 14.6852 17.4188 14.5083 17.8974 14.34C18.0537 14.288 18.1611 14.2657 18.2642 14.2657C18.4803 14.2657 18.6774 14.4244 18.6774 14.6906C18.6774 14.7703 18.6594 14.9449 18.5785 15.1184C17.6914 17.314 15.2501 19.0446 12.4081 19.0446Z" fill="white"/>
</svg>
