<svg width="30" height="31" viewBox="0 0 30 31" fill="none" xmlns="http://www.w3.org/2000/svg">
<path d="M14.9987 30.0223C23.216 30.0223 30 23.2382 30 15.021C30 6.81833 23.2041 0.0223389 14.9868 0.0223389C6.78408 0.0223389 0 6.81833 0 15.021C0 23.2382 6.79599 30.0223 14.9987 30.0223Z" fill="#073C8A"/>
<path d="M15.3738 23.5972C10.5445 23.5972 6.85547 20.1251 6.85547 15.2719C6.85547 11.826 8.90048 8.55959 11.9738 7.34106C12.1783 7.26323 12.3868 7.22897 12.5067 7.22897C12.8325 7.22897 13.0199 7.49294 13.0199 7.75141C13.0199 7.85275 13.0042 7.99504 12.9039 8.19948C12.6255 8.88484 12.3891 10.1487 12.3891 11.1096C12.3891 15.4674 15.1741 18.1957 19.5595 18.1957C20.559 18.1957 21.5823 17.9765 22.1754 17.768C22.369 17.7035 22.5021 17.6759 22.6298 17.6759C22.8976 17.6759 23.1418 17.8725 23.1418 18.2024C23.1418 18.3011 23.1195 18.5175 23.0193 18.7324C21.9201 21.4529 18.8952 23.5972 15.3738 23.5972Z" fill="white"/>
</svg>
