<svg width="30" height="30" viewBox="0 0 30 30" fill="none" xmlns="http://www.w3.org/2000/svg">
<path d="M14.9987 30C23.216 30 30.0001 23.2159 30.0001 14.9987C30.0001 6.79601 23.2041 0 14.9868 0C6.7841 0 0 6.79601 0 14.9987C0 23.2159 6.79601 30 14.9987 30Z" fill="#F3A100"/>
<path d="M14.9987 19.4651C12.5549 19.4651 10.527 17.4254 10.527 14.9935C10.527 12.5498 12.5549 10.51 14.9987 10.51C17.4331 10.51 19.4611 12.5498 19.4611 14.9935C19.4611 17.4254 17.4331 19.4651 14.9987 19.4651ZM14.9987 5.61115C15.5342 5.61115 15.9985 6.07289 15.9985 6.61768V8.29244C15.9985 8.82794 15.5342 9.29753 14.9987 9.29753C14.4632 9.29753 14.0108 8.82794 14.0108 8.29244V6.61768C14.0108 6.07289 14.4632 5.61115 14.9987 5.61115ZM21.6218 8.35575C22.0043 8.74227 22.019 9.38726 21.6322 9.76187L20.4226 10.9691C20.0454 11.3556 19.3963 11.3727 19.0217 10.9743C18.6392 10.6064 18.6299 9.99304 19.0165 9.592L20.2355 8.36098C20.5981 7.98636 21.2353 7.96922 21.6218 8.35575ZM24.3651 14.9935C24.3651 15.5264 23.91 15.9789 23.3652 15.9789H21.6786C21.1481 15.9789 20.6932 15.5145 20.6932 14.9935C20.6932 14.4606 21.1481 13.9963 21.6786 13.9963H23.3652C23.91 13.9963 24.3651 14.4487 24.3651 14.9935ZM21.6322 21.6115C21.2458 21.9861 20.6154 21.9887 20.2407 21.6193L19.0217 20.4002C18.6299 20.0256 18.6221 19.3925 19.0165 19.006C19.3936 18.6287 20.0454 18.6287 20.4079 19.0034L21.6296 20.2106C22.019 20.5759 22.019 21.2156 21.6322 21.6115ZM14.9987 24.3639C14.4632 24.3639 14.0108 23.9021 14.0108 23.3693V21.6826C14.0108 21.1471 14.4632 20.6775 14.9987 20.6775C15.5342 20.6775 15.9985 21.1471 15.9985 21.6826V23.3693C15.9985 23.9021 15.5342 24.3639 14.9987 24.3639ZM8.35568 21.5996C7.98106 21.2209 7.98368 20.5852 8.35829 20.2106L9.58003 19.0034C9.94273 18.6287 10.6063 18.6287 10.9862 19.006C11.3634 19.4018 11.3608 20.0349 10.9809 20.4002L9.76181 21.6193C9.38719 21.994 8.74743 21.9887 8.35568 21.5996ZM5.64941 14.9935C5.64941 14.4487 6.08996 13.9963 6.63475 13.9963H8.31881C8.8543 13.9963 9.30937 14.4606 9.30937 14.9935C9.30937 15.5145 8.8543 15.9789 8.31881 15.9789H6.63475C6.08996 15.9789 5.64941 15.5264 5.64941 14.9935ZM8.38472 8.35575C8.77909 7.98113 9.40433 7.99827 9.76704 8.36098L10.9862 9.592C11.3608 9.95471 11.3608 10.6064 10.9809 10.9743C10.5944 11.3634 9.95203 11.3675 9.57741 10.9691L8.3702 9.76187C7.98368 9.38726 8.01011 8.74227 8.38472 8.35575Z" fill="white"/>
</svg>
