<svg width="25" height="25" viewBox="0 0 25 25" fill="none" xmlns="http://www.w3.org/2000/svg">
<path d="M12.105 24.212C18.7369 24.212 24.2121 18.7368 24.2121 12.1049C24.2121 5.48484 18.7273 0 12.0954 0C5.47523 0 0 5.48484 0 12.1049C0 18.7368 5.48484 24.212 12.105 24.212Z" fill="#F3A100"/>
<path d="M12.1051 15.7096C10.1328 15.7096 8.49614 14.0634 8.49614 12.1007C8.49614 10.1285 10.1328 8.48223 12.1051 8.48223C14.0698 8.48223 15.7065 10.1285 15.7065 12.1007C15.7065 14.0634 14.0698 15.7096 12.1051 15.7096ZM12.1051 4.52856C12.5373 4.52856 12.912 4.90122 12.912 5.3409V6.69255C12.912 7.12473 12.5373 7.50372 12.1051 7.50372C11.6729 7.50372 11.3078 7.12473 11.3078 6.69255V5.3409C11.3078 4.90122 11.6729 4.52856 12.1051 4.52856ZM17.4504 6.74364C17.7591 7.05559 17.7709 7.57614 17.4588 7.87848L16.4825 8.85278C16.1781 9.16473 15.6542 9.17856 15.3519 8.857C15.0432 8.56005 15.0357 8.06505 15.3477 7.74138L16.3315 6.74786C16.6242 6.44552 17.1384 6.43169 17.4504 6.74364ZM19.6644 12.1007C19.6644 12.5308 19.2971 12.896 18.8574 12.896H17.4962C17.0681 12.896 16.7009 12.5212 16.7009 12.1007C16.7009 11.6706 17.0681 11.2959 17.4962 11.2959H18.8574C19.2971 11.2959 19.6644 11.661 19.6644 12.1007ZM17.4588 17.4419C17.1469 17.7442 16.6381 17.7463 16.3357 17.4482L15.3519 16.4643C15.0357 16.162 15.0294 15.651 15.3477 15.3391C15.6521 15.0346 16.1781 15.0346 16.4707 15.337L17.4567 16.3113C17.7709 16.6061 17.7709 17.1224 17.4588 17.4419ZM12.1051 19.6633C11.6729 19.6633 11.3078 19.2906 11.3078 18.8606V17.4993C11.3078 17.0671 11.6729 16.6881 12.1051 16.6881C12.5373 16.6881 12.912 17.0671 12.912 17.4993V18.8606C12.912 19.2906 12.5373 19.6633 12.1051 19.6633ZM6.74371 17.4323C6.44137 17.1267 6.44348 16.6136 6.74582 16.3113L7.73184 15.337C8.02457 15.0346 8.56012 15.0346 8.86668 15.3391C9.17113 15.6585 9.16902 16.1695 8.86246 16.4643L7.87855 17.4482C7.57621 17.7506 7.05988 17.7463 6.74371 17.4323ZM4.55957 12.1007C4.55957 11.661 4.91512 11.2959 5.3548 11.2959H6.71395C7.14613 11.2959 7.5134 11.6706 7.5134 12.1007C7.5134 12.5212 7.14613 12.896 6.71395 12.896H5.3548C4.91512 12.896 4.55957 12.5308 4.55957 12.1007ZM6.76715 6.74364C7.08543 6.4413 7.59004 6.45513 7.88277 6.74786L8.86668 7.74138C9.16902 8.03411 9.16902 8.56005 8.86246 8.857C8.55051 9.17106 8.03207 9.17434 7.72973 8.85278L6.75543 7.87848C6.44348 7.57614 6.46481 7.05559 6.76715 6.74364Z" fill="white"/>
</svg>
