<svg width="22" height="22" viewBox="0 0 22 22" fill="none" xmlns="http://www.w3.org/2000/svg">
<path d="M7.73143 10.0147C9.24943 10.0147 10.0147 9.24943 10.0147 7.67329V2.33043C10.0147 0.752715 9.24943 0 7.73143 0H2.28171C0.765286 0 0 0.752715 0 2.33043V7.67329C0 9.24943 0.765286 10.0147 2.28171 10.0147H7.73143ZM19.7183 10.0147C21.2347 10.0147 22 9.24943 22 7.67329V2.33043C22 0.752715 21.2347 0 19.7183 0H14.2811C12.7506 0 11.9869 0.752715 11.9869 2.33043V7.67329C11.9869 9.24943 12.7506 10.0147 14.2811 10.0147H19.7183ZM7.69686 8.32857H2.30686C1.88886 8.32857 1.68457 8.11328 1.68457 7.67171V2.32886C1.68457 1.89986 1.88886 1.68457 2.30686 1.68457H7.69686C8.11329 1.68457 8.32857 1.89986 8.32857 2.32886V7.67171C8.32857 8.11328 8.11486 8.32857 7.69686 8.32857ZM19.6931 8.32857H14.3031C13.8741 8.32857 13.6714 8.11328 13.6714 7.67171V2.32886C13.6714 1.89986 13.8741 1.68457 14.3047 1.68457H19.6947C20.1111 1.68457 20.3154 1.89986 20.3154 2.32886V7.67171C20.3154 8.11328 20.1111 8.32857 19.6931 8.32857ZM7.73143 22C9.24943 22 10.0147 21.2457 10.0147 19.6696V14.3157C10.0147 12.7506 9.24943 11.9853 7.73143 11.9853H2.28171C0.765286 11.9853 0 12.7506 0 14.3157V19.6696C0 21.2473 0.765286 22 2.28171 22H7.73143ZM19.7183 22C21.2347 22 22 21.2457 22 19.6696V14.3157C22 12.7506 21.2347 11.9853 19.7183 11.9853H14.2811C12.7506 11.9853 11.9869 12.7506 11.9869 14.3157V19.6696C11.9869 21.2473 12.7506 22 14.2811 22H19.7183ZM7.69686 20.3154H2.30686C1.88886 20.3154 1.68457 20.1001 1.68457 19.6711V14.3283C1.68457 13.8851 1.88886 13.6714 2.30686 13.6714H7.69686C8.11329 13.6714 8.32857 13.8851 8.32857 14.3283V19.6711C8.32857 20.1001 8.11486 20.3154 7.69686 20.3154ZM19.6931 20.3154H14.3031C13.8741 20.3154 13.6714 20.1001 13.6714 19.6711V14.3283C13.6714 13.8851 13.8741 13.6714 14.3047 13.6714H19.6947C20.1111 13.6714 20.3154 13.8851 20.3154 14.3283V19.6711C20.3154 20.1001 20.1111 20.3154 19.6931 20.3154Z"/>
</svg>
