<svg width="21" height="21" viewBox="0 0 21 21" fill="none" xmlns="http://www.w3.org/2000/svg">
<path d="M7.38 9.5595C8.829 9.5595 9.5595 8.829 9.5595 7.3245V2.2245C9.5595 0.7185 8.829 0 7.38 0H2.178C0.7305 0 0 0.7185 0 2.2245V7.3245C0 8.829 0.7305 9.5595 2.178 9.5595H7.38ZM18.822 9.5595C20.2695 9.5595 21 8.829 21 7.3245V2.2245C21 0.7185 20.2695 0 18.822 0H13.632C12.171 0 11.442 0.7185 11.442 2.2245V7.3245C11.442 8.829 12.171 9.5595 13.632 9.5595H18.822ZM7.347 7.95H2.202C1.803 7.95 1.608 7.7445 1.608 7.323V2.223C1.608 1.8135 1.803 1.608 2.202 1.608H7.347C7.7445 1.608 7.95 1.8135 7.95 2.223V7.323C7.95 7.7445 7.746 7.95 7.347 7.95ZM18.798 7.95H13.653C13.2435 7.95 13.05 7.7445 13.05 7.323V2.223C13.05 1.8135 13.2435 1.608 13.6545 1.608H18.7995C19.197 1.608 19.392 1.8135 19.392 2.223V7.323C19.392 7.7445 19.197 7.95 18.798 7.95ZM7.38 21C8.829 21 9.5595 20.28 9.5595 18.7755V13.665C9.5595 12.171 8.829 11.4405 7.38 11.4405H2.178C0.7305 11.4405 0 12.171 0 13.665V18.7755C0 20.2815 0.7305 21 2.178 21H7.38ZM18.822 21C20.2695 21 21 20.28 21 18.7755V13.665C21 12.171 20.2695 11.4405 18.822 11.4405H13.632C12.171 11.4405 11.442 12.171 11.442 13.665V18.7755C11.442 20.2815 12.171 21 13.632 21H18.822ZM7.347 19.392H2.202C1.803 19.392 1.608 19.1865 1.608 18.777V13.677C1.608 13.254 1.803 13.05 2.202 13.05H7.347C7.7445 13.05 7.95 13.254 7.95 13.677V18.777C7.95 19.1865 7.746 19.392 7.347 19.392ZM18.798 19.392H13.653C13.2435 19.392 13.05 19.1865 13.05 18.777V13.677C13.05 13.254 13.2435 13.05 13.6545 13.05H18.7995C19.197 13.05 19.392 13.254 19.392 13.677V18.777C19.392 19.1865 19.197 19.392 18.798 19.392Z" />
</svg>
