<svg width="24" height="16" viewBox="0 0 24 16" fill="none" xmlns="http://www.w3.org/2000/svg">
<path d="M6.76526 2.25599H23.0353C23.5712 2.25599 24 1.87269 24 1.37988C24 0.876114 23.5712 0.492814 23.0353 0.492814H6.76526C6.21737 0.492814 5.80049 0.876114 5.80049 1.37988C5.80049 1.87269 6.21737 2.25599 6.76526 2.25599ZM6.76526 8.8816H23.0353C23.5712 8.8816 24 8.48735 24 7.99453C24 7.50172 23.5712 7.11842 23.0353 7.11842H6.76526C6.21737 7.11842 5.80049 7.50172 5.80049 7.99453C5.80049 8.48735 6.21737 8.8816 6.76526 8.8816ZM6.76526 15.4963H23.0353C23.5712 15.4963 24 15.113 24 14.6202C24 14.1164 23.5712 13.7331 23.0353 13.7331H6.76526C6.21737 13.7331 5.80049 14.1164 5.80049 14.6202C5.80049 15.113 6.21737 15.4963 6.76526 15.4963ZM1.50074 2.7488C2.33449 2.7488 3.00148 2.13552 3.00148 1.37988C3.00148 0.61328 2.33449 0 1.50074 0C0.666997 0 0 0.61328 0 1.37988C0 2.13552 0.666997 2.7488 1.50074 2.7488ZM1.50074 9.37443C2.33449 9.37443 3.00148 8.76114 3.00148 7.99453C3.00148 7.22794 2.33449 6.61466 1.50074 6.61466C0.666997 6.61466 0 7.22794 0 7.99453C0 8.76114 0.666997 9.37443 1.50074 9.37443ZM1.50074 16C2.33449 16 3.00148 15.3758 3.00148 14.6202C3.00148 13.8536 2.33449 13.2403 1.50074 13.2403C0.666997 13.2403 0 13.8536 0 14.6202C0 15.3758 0.666997 16 1.50074 16Z" />
</svg>
