<svg width="25" height="17" viewBox="0 0 25 17" fill="none" xmlns="http://www.w3.org/2000/svg">
<path d="M7.04714 2.39699H23.9951C24.5533 2.39699 25 1.98973 25 1.46612C25 0.930871 24.5533 0.523615 23.9951 0.523615H7.04714C6.47642 0.523615 6.04218 0.930871 6.04218 1.46612C6.04218 1.98973 6.47642 2.39699 7.04714 2.39699ZM7.04714 9.4367H23.9951C24.5533 9.4367 25 9.01781 25 8.49419C25 7.97058 24.5533 7.56332 23.9951 7.56332H7.04714C6.47642 7.56332 6.04218 7.97058 6.04218 8.49419C6.04218 9.01781 6.47642 9.4367 7.04714 9.4367ZM7.04714 16.4648H23.9951C24.5533 16.4648 25 16.0575 25 15.5339C25 14.9987 24.5533 14.5915 23.9951 14.5915H7.04714C6.47642 14.5915 6.04218 14.9987 6.04218 15.5339C6.04218 16.0575 6.47642 16.4648 7.04714 16.4648ZM1.56327 2.9206C2.43177 2.9206 3.12654 2.26899 3.12654 1.46612C3.12654 0.65161 2.43177 0 1.56327 0C0.694789 0 0 0.65161 0 1.46612C0 2.26899 0.694789 2.9206 1.56327 2.9206ZM1.56327 9.96033C2.43177 9.96033 3.12654 9.30871 3.12654 8.49419C3.12654 7.67968 2.43177 7.02807 1.56327 7.02807C0.694789 7.02807 0 7.67968 0 8.49419C0 9.30871 0.694789 9.96033 1.56327 9.96033ZM1.56327 17C2.43177 17 3.12654 16.3368 3.12654 15.5339C3.12654 14.7194 2.43177 14.0678 1.56327 14.0678C0.694789 14.0678 0 14.7194 0 15.5339C0 16.3368 0.694789 17 1.56327 17Z" />
</svg>
