<?xml version="1.0" encoding="UTF-8" standalone="no"?>
<!DOCTYPE svg PUBLIC "-//W3C//DTD SVG 1.1//EN" "http://www.w3.org/Graphics/SVG/1.1/DTD/svg11.dtd">
<svg width="100%" height="100%" viewBox="0 0 80 80" version="1.1" xmlns="http://www.w3.org/2000/svg" xmlns:xlink="http://www.w3.org/1999/xlink" xml:space="preserve" xmlns:serif="http://www.serif.com/" style="fill-rule:evenodd;clip-rule:evenodd;stroke-linejoin:round;stroke-miterlimit:2;">
    <g id="Layer1">
        <g transform="matrix(1.00173,0,0,1.0179,-0.176708,-0.983588)">
            <path d="M80.038,18.514C80.038,13.86 78.16,9.397 74.816,6.106C71.472,2.815 66.936,0.966 62.207,0.966L17.658,0.966C13.022,0.966 8.575,2.779 5.297,6.005C2.018,9.232 0.176,13.608 0.176,18.17C0.176,31.182 0.176,48.98 0.176,62.063C0.176,71.726 8.137,79.56 17.956,79.56L62.215,79.56C72.059,79.56 80.038,71.707 80.038,62.02C80.038,49.056 80.038,31.48 80.038,18.514Z" style="fill:white;"/>
        </g>
        <g transform="matrix(1.00202,0,0,0.992214,-0.255952,0.294419)">
            <path d="M15.227,41.996C20.895,51.807 28.522,59.602 38.179,65.215L18.172,65.215C16.545,65.215 15.227,63.883 15.227,62.241L15.227,41.996Z" style="fill:rgb(253,65,94);"/>
        </g>
        <g transform="matrix(1.00202,0,0,0.992214,-0.255952,0.294419)">
            <path d="M15.227,17.794C15.227,16.156 16.541,14.829 18.162,14.829L28.159,14.829L65.127,52.113L65.127,62.135C65.127,62.952 64.806,63.735 64.234,64.313C63.662,64.89 62.887,65.215 62.078,65.215L52.152,65.215L15.227,27.931" style="fill:rgb(253,65,94);"/>
        </g>
        <g transform="matrix(1.00202,0,0,0.992214,-0.255952,0.294419)">
            <path d="M42.18,14.829L62.178,14.829C62.96,14.829 63.71,15.143 64.263,15.701C64.817,16.26 65.127,17.018 65.127,17.808L65.127,38.019C59.44,28.46 51.853,20.651 42.18,14.829Z" style="fill:rgb(253,65,94);"/>
        </g>
    </g>
</svg>
